<svg xmlns="http://www.w3.org/2000/svg" width="1200" height="800" viewBox="0 0 1200 800">
    <rect width="1200" height="800" fill="#101a38"/>
    <g transform="translate(36 10) scale(.94)"><title>Moon phases: sunlight, orbital position and our view</title><rect width="1200" height="800" fill="#101a38"/><g font-family="Arial, Helvetica, sans-serif" fill="#edf1ff"><circle cx="0" cy="0" r="1" fill="#c9d4ff" opacity=".3"/><circle cx="197" cy="89" r="1.4" fill="#c9d4ff" opacity=".3"/><circle cx="394" cy="178" r="1.8" fill="#c9d4ff" opacity=".3"/><circle cx="591" cy="267" r="1" fill="#c9d4ff" opacity=".3"/><circle cx="788" cy="356" r="1.4" fill="#c9d4ff" opacity=".3"/><circle cx="985" cy="445" r="1.8" fill="#c9d4ff" opacity=".3"/><circle cx="1182" cy="534" r="1" fill="#c9d4ff" opacity=".3"/><circle cx="179" cy="623" r="1.4" fill="#c9d4ff" opacity=".3"/><circle cx="376" cy="712" r="1.8" fill="#c9d4ff" opacity=".3"/><circle cx="573" cy="1" r="1" fill="#c9d4ff" opacity=".3"/><circle cx="770" cy="90" r="1.4" fill="#c9d4ff" opacity=".3"/><circle cx="967" cy="179" r="1.8" fill="#c9d4ff" opacity=".3"/><circle cx="1164" cy="268" r="1" fill="#c9d4ff" opacity=".3"/><circle cx="161" cy="357" r="1.4" fill="#c9d4ff" opacity=".3"/><circle cx="358" cy="446" r="1.8" fill="#c9d4ff" opacity=".3"/><circle cx="555" cy="535" r="1" fill="#c9d4ff" opacity=".3"/><circle cx="752" cy="624" r="1.4" fill="#c9d4ff" opacity=".3"/><circle cx="949" cy="713" r="1.8" fill="#c9d4ff" opacity=".3"/><circle cx="1146" cy="2" r="1" fill="#c9d4ff" opacity=".3"/><circle cx="143" cy="91" r="1.4" fill="#c9d4ff" opacity=".3"/><circle cx="340" cy="180" r="1.8" fill="#c9d4ff" opacity=".3"/><circle cx="537" cy="269" r="1" fill="#c9d4ff" opacity=".3"/><circle cx="734" cy="358" r="1.4" fill="#c9d4ff" opacity=".3"/><circle cx="931" cy="447" r="1.8" fill="#c9d4ff" opacity=".3"/><circle cx="1128" cy="536" r="1" fill="#c9d4ff" opacity=".3"/><circle cx="125" cy="625" r="1.4" fill="#c9d4ff" opacity=".3"/><circle cx="322" cy="714" r="1.8" fill="#c9d4ff" opacity=".3"/><circle cx="519" cy="3" r="1" fill="#c9d4ff" opacity=".3"/><circle cx="716" cy="92" r="1.4" fill="#c9d4ff" opacity=".3"/><circle cx="913" cy="181" r="1.8" fill="#c9d4ff" opacity=".3"/><circle cx="1110" cy="270" r="1" fill="#c9d4ff" opacity=".3"/><circle cx="107" cy="359" r="1.4" fill="#c9d4ff" opacity=".3"/><circle cx="304" cy="448" r="1.8" fill="#c9d4ff" opacity=".3"/><circle cx="501" cy="537" r="1" fill="#c9d4ff" opacity=".3"/><circle cx="698" cy="626" r="1.4" fill="#c9d4ff" opacity=".3"/><circle cx="895" cy="715" r="1.8" fill="#c9d4ff" opacity=".3"/><circle cx="1092" cy="4" r="1" fill="#c9d4ff" opacity=".3"/><circle cx="89" cy="93" r="1.4" fill="#c9d4ff" opacity=".3"/><circle cx="286" cy="182" r="1.8" fill="#c9d4ff" opacity=".3"/><circle cx="483" cy="271" r="1" fill="#c9d4ff" opacity=".3"/><circle cx="680" cy="360" r="1.4" fill="#c9d4ff" opacity=".3"/><circle cx="877" cy="449" r="1.8" fill="#c9d4ff" opacity=".3"/><circle cx="1074" cy="538" r="1" fill="#c9d4ff" opacity=".3"/><circle cx="71" cy="627" r="1.4" fill="#c9d4ff" opacity=".3"/><circle cx="268" cy="716" r="1.8" fill="#c9d4ff" opacity=".3"/><circle cx="465" cy="5" r="1" fill="#c9d4ff" opacity=".3"/><circle cx="662" cy="94" r="1.4" fill="#c9d4ff" opacity=".3"/><circle cx="859" cy="183" r="1.8" fill="#c9d4ff" opacity=".3"/><circle cx="1056" cy="272" r="1" fill="#c9d4ff" opacity=".3"/><circle cx="53" cy="361" r="1.4" fill="#c9d4ff" opacity=".3"/><circle cx="250" cy="450" r="1.8" fill="#c9d4ff" opacity=".3"/><circle cx="447" cy="539" r="1" fill="#c9d4ff" opacity=".3"/><circle cx="644" cy="628" r="1.4" fill="#c9d4ff" opacity=".3"/><circle cx="841" cy="717" r="1.8" fill="#c9d4ff" opacity=".3"/><circle cx="1038" cy="6" r="1" fill="#c9d4ff" opacity=".3"/><circle cx="35" cy="95" r="1.4" fill="#c9d4ff" opacity=".3"/><circle cx="232" cy="184" r="1.8" fill="#c9d4ff" opacity=".3"/><circle cx="429" cy="273" r="1" fill="#c9d4ff" opacity=".3"/><circle cx="626" cy="362" r="1.4" fill="#c9d4ff" opacity=".3"/><circle cx="823" cy="451" r="1.8" fill="#c9d4ff" opacity=".3"/><circle cx="1020" cy="540" r="1" fill="#c9d4ff" opacity=".3"/><circle cx="17" cy="629" r="1.4" fill="#c9d4ff" opacity=".3"/><circle cx="214" cy="718" r="1.8" fill="#c9d4ff" opacity=".3"/><circle cx="411" cy="7" r="1" fill="#c9d4ff" opacity=".3"/><circle cx="608" cy="96" r="1.4" fill="#c9d4ff" opacity=".3"/><circle cx="805" cy="185" r="1.8" fill="#c9d4ff" opacity=".3"/><circle cx="1002" cy="274" r="1" fill="#c9d4ff" opacity=".3"/><circle cx="1199" cy="363" r="1.4" fill="#c9d4ff" opacity=".3"/><circle cx="196" cy="452" r="1.8" fill="#c9d4ff" opacity=".3"/><circle cx="393" cy="541" r="1" fill="#c9d4ff" opacity=".3"/><circle cx="590" cy="630" r="1.4" fill="#c9d4ff" opacity=".3"/><circle cx="787" cy="719" r="1.8" fill="#c9d4ff" opacity=".3"/><circle cx="984" cy="8" r="1" fill="#c9d4ff" opacity=".3"/><circle cx="1181" cy="97" r="1.4" fill="#c9d4ff" opacity=".3"/><circle cx="178" cy="186" r="1.8" fill="#c9d4ff" opacity=".3"/><text x="470" y="94" font-size="27" text-anchor="middle">Viewed from above</text><text x="955" y="94" font-size="27" text-anchor="middle">Seen from Earth</text><circle cx="-88" cy="405" r="175" fill="#edba4d"/><text x="78" y="170" font-size="22" fill="#edba4d">Sunlight</text><path d="M106 240 H203 l-12 -8 m12 8 l-12 8" stroke="#edba4d" stroke-width="4" fill="none"/><path d="M106 320 H203 l-12 -8 m12 8 l-12 8" stroke="#edba4d" stroke-width="4" fill="none"/><path d="M106 405 H203 l-12 -8 m12 8 l-12 8" stroke="#edba4d" stroke-width="4" fill="none"/><path d="M106 490 H203 l-12 -8 m12 8 l-12 8" stroke="#edba4d" stroke-width="4" fill="none"/><path d="M106 570 H203 l-12 -8 m12 8 l-12 8" stroke="#edba4d" stroke-width="4" fill="none"/><circle cx="475" cy="405" r="210" fill="none" stroke="#8fa3e0" stroke-dasharray="7 10" stroke-width="2"/><circle cx="475" cy="405" r="51" fill="#3f7fd1"/><path d="M445 389q25-40 45 0q-12 30-30 15Z M482 423q25-12 26 15l-20 5Z" fill="#2f9e6e"/><path d="M475 354 A51 51 0 0 1 475 456Z" fill="#0b1633" opacity=".4"/><text x="475" y="480" font-size="20" text-anchor="middle">Earth</text><path d="M760 125 V702" stroke="#8fa3e0" stroke-width="2" opacity=".3"/><circle cx="265" cy="405" r="29" fill="#2b3552"/><path d="M265 376 A29 29 0 0 0 265 434Z" fill="#f4f1e6"/><text x="265" y="456" font-size="19" text-anchor="middle" fill="#adbce1">1</text><circle cx="843" cy="160" r="23" fill="#2b3552"/><text x="796" y="167" font-size="18" fill="#adbce1">1</text><text x="884" y="168" font-size="23">New moon</text><circle cx="326.50757595082507" cy="553.492424049175" r="29" fill="#2b3552"/><path d="M326.50757595082507 524.492424049175 A29 29 0 0 0 326.50757595082507 582.492424049175Z" fill="#f4f1e6"/><text x="326.50757595082507" y="604.492424049175" font-size="19" text-anchor="middle" fill="#adbce1">2</text><circle cx="843" cy="230" r="23" fill="#2b3552"/><path d="M843 207 A23 23 0 0 1 843 253 A16.263455967290593 23 0 0 0 843 207Z" fill="#f4f1e6"/><text x="796" y="237" font-size="18" fill="#adbce1">2</text><text x="884" y="238" font-size="23">Waxing crescent</text><circle cx="475" cy="615" r="29" fill="#2b3552"/><path d="M475 586 A29 29 0 0 0 475 644Z" fill="#f4f1e6"/><text x="475" y="666" font-size="19" text-anchor="middle" fill="#adbce1">3</text><circle cx="843" cy="300" r="23" fill="#2b3552"/><path d="M843 277 A23 23 0 0 1 843 323 L 843 277Z" fill="#f4f1e6"/><text x="796" y="307" font-size="18" fill="#adbce1">3</text><text x="884" y="308" font-size="23">First quarter</text><circle cx="623.492424049175" cy="553.4924240491749" r="29" fill="#2b3552"/><path d="M623.492424049175 524.4924240491749 A29 29 0 0 0 623.492424049175 582.4924240491749Z" fill="#f4f1e6"/><text x="623.492424049175" y="604.4924240491749" font-size="19" text-anchor="middle" fill="#adbce1">4</text><circle cx="843" cy="370" r="23" fill="#2b3552"/><path d="M843 347 A23 23 0 0 1 843 393 A16.263455967290593 23 0 0 1 843 347Z" fill="#f4f1e6"/><text x="796" y="377" font-size="18" fill="#adbce1">4</text><text x="884" y="378" font-size="23">Waxing gibbous</text><circle cx="685" cy="405" r="29" fill="#2b3552"/><path d="M685 376 A29 29 0 0 0 685 434Z" fill="#f4f1e6"/><text x="685" y="456" font-size="19" text-anchor="middle" fill="#adbce1">5</text><circle cx="843" cy="440" r="23" fill="#f4f1e6"/><text x="796" y="447" font-size="18" fill="#adbce1">5</text><text x="884" y="448" font-size="23">Full moon</text><circle cx="623.492424049175" cy="256.50757595082507" r="29" fill="#2b3552"/><path d="M623.492424049175 227.50757595082507 A29 29 0 0 0 623.492424049175 285.50757595082507Z" fill="#f4f1e6"/><text x="623.492424049175" y="307.50757595082507" font-size="19" text-anchor="middle" fill="#adbce1">6</text><circle cx="843" cy="510" r="23" fill="#2b3552"/><path d="M843 487 A23 23 0 0 0 843 533 A16.263455967290597 23 0 0 0 843 487Z" fill="#f4f1e6"/><text x="796" y="517" font-size="18" fill="#adbce1">6</text><text x="884" y="518" font-size="23">Waning gibbous</text><circle cx="475" cy="195" r="29" fill="#2b3552"/><path d="M475 166 A29 29 0 0 0 475 224Z" fill="#f4f1e6"/><text x="475" y="246" font-size="19" text-anchor="middle" fill="#adbce1">7</text><circle cx="843" cy="580" r="23" fill="#2b3552"/><path d="M843 557 A23 23 0 0 0 843 603 L 843 557Z" fill="#f4f1e6"/><text x="796" y="587" font-size="18" fill="#adbce1">7</text><text x="884" y="588" font-size="23">Last quarter</text><circle cx="326.50757595082507" cy="256.507575950825" r="29" fill="#2b3552"/><path d="M326.50757595082507 227.50757595082501 A29 29 0 0 0 326.50757595082507 285.507575950825Z" fill="#f4f1e6"/><text x="326.50757595082507" y="307.507575950825" font-size="19" text-anchor="middle" fill="#adbce1">8</text><circle cx="843" cy="650" r="23" fill="#2b3552"/><path d="M843 627 A23 23 0 0 0 843 673 A16.26345596729059 23 0 0 1 843 627Z" fill="#f4f1e6"/><text x="796" y="657" font-size="18" fill="#adbce1">8</text><text x="884" y="658" font-size="23">Waning crescent</text><text x="45" y="741" font-size="18" fill="#b0bfdc">Northern Hemisphere orientation · orbital tilt omitted · sizes and distances not to scale</text></g></g>
    <g font-family="Arial, Helvetica, sans-serif">
      <path d="M36 766 H1164" stroke="#344363"/>
      <text x="38" y="791" font-size="16" fill="#a8badc">Predict. Experiment. Explain.</text>
      <text x="1162" y="791" text-anchor="end" font-size="21" font-weight="700" fill="#e4ebff">LearnerKits</text>
    </g>
  </svg>