<svg xmlns="http://www.w3.org/2000/svg" width="1512" height="256" viewBox="0 0 1512 256">
 <title>LearnerKits — Predict. Experiment. Explain.</title>
 <desc>LinkedIn company banner featuring the LearnerKits logo and science-inspired orbital and wave artwork.</desc>
 <defs>
  <linearGradient id="background" x1="0" y1="0" x2="1512" y2="256" gradientUnits="userSpaceOnUse"><stop stop-color="#101d42"/><stop offset=".6" stop-color="#1c3574"/><stop offset="1" stop-color="#315bd6"/></linearGradient>
  <radialGradient id="glow"><stop stop-color="#8bb4ff" stop-opacity=".25"/><stop offset="1" stop-color="#8bb4ff" stop-opacity="0"/></radialGradient>
  <pattern id="grid" width="28" height="28" patternUnits="userSpaceOnUse"><circle cx="1" cy="1" r=".75" fill="#d2e4ff" opacity=".12"/></pattern>
 </defs>
 <rect width="1512" height="256" fill="url(#background)"/>
 <rect width="1512" height="256" fill="url(#grid)"/>
 <ellipse cx="210" cy="85" rx="300" ry="235" fill="url(#glow)"/>
 <ellipse cx="1440" cy="210" rx="280" ry="270" fill="url(#glow)"/>
 <g fill="none" stroke="#86aaff" stroke-width="1.5">
  <ellipse cx="177" cy="113" rx="142" ry="63" transform="rotate(-24 177 113)" opacity=".45"/>
  <ellipse cx="177" cy="113" rx="142" ry="63" transform="rotate(37 177 113)" opacity=".3"/>
  <circle cx="177" cy="113" r="92" opacity=".16"/>
  <path d="M-25 175 Q60 60 150 132 T326 130" opacity=".4"/>
 </g>
 <circle cx="177" cy="113" r="13" fill="#adc5ff" opacity=".9"/>
 <circle cx="286" cy="43" r="6" fill="#f4b942"/>
 <circle cx="63" cy="69" r="4" fill="#88afff"/>
 <circle cx="253" cy="176" r="4" fill="#d0ddff"/>
 <g fill="none" stroke="#b7ceff" stroke-width="1.6" opacity=".35">
  <path d="M1190 170 C1226 170 1226 69 1262 69 S1298 221 1334 221 S1370 69 1406 69 S1442 170 1478 170 S1514 69 1550 69"/>
  <path d="M1190 115 C1226 115 1226 183 1262 183 S1298 47 1334 47 S1370 183 1406 183 S1442 115 1478 115 S1514 183 1550 183" opacity=".45"/>
  <path d="M1185 137 H1540" stroke-dasharray="3 8" opacity=".4"/>
 </g>
 <circle cx="1334" cy="47" r="5" fill="#f4b942"/>
 <svg x="420" y="31" width="205" height="44" viewBox="0 0 300 64">
  <title id="title">LearnerKits</title>
  <desc id="desc">An open learning kit with a spark of discovery.</desc>
  <defs>
    <linearGradient id="markGradient" x1="5" y1="4" x2="59" y2="60" gradientUnits="userSpaceOnUse">
      <stop stop-color="#315bd6"/>
      <stop offset="1" stop-color="#5c6ac4"/>
    </linearGradient>
  </defs>
  <g transform="translate(4 4)">
    <rect width="56" height="56" rx="17" fill="url(#markGradient)"/>
    <path d="M12 20.2c6.9-4.3 13.6-4.1 20 .5v24.1c-6.4-4.6-13.1-4.8-20-.5V20.2Z" fill="#0f172a"/>
    <path d="M44 20.2c-6.9-4.3-13.6-4.1-20 .5v24.1c6.4-4.6 13.1-4.8 20-.5V20.2Z" fill="#c8d7ff"/>
    <path d="M32 20.7v24.1" fill="none" stroke="#315bd6" stroke-width="2" stroke-linecap="round"/>
    <path d="M16.5 28c4-1.5 7.8-1.3 11.2.8M16.5 34.2c4-1.5 7.8-1.3 11.2.8M39.5 28c-2-.7-3.9-.9-5.7-.6M39.5 34.2c-2-.7-3.9-.9-5.7-.6" fill="none" stroke="#87a2ff" stroke-width="1.7" stroke-linecap="round"/>
    <path d="m28 10.2 1.5 3.7 3.7 1.5-3.7 1.5-1.5 3.7-1.5-3.7-3.7-1.5 3.7-1.5 1.5-3.7Z" fill="#f4b942"/>
    <circle cx="45.5" cy="45.5" r="2.3" fill="#f4b942"/>
  </g>
  <text x="76" y="42" font-family="Inter, ui-sans-serif, system-ui, -apple-system, BlinkMacSystemFont, 'Segoe UI', sans-serif" font-size="29" font-weight="800" letter-spacing="-1.25"><tspan fill="#f3f7f3">Learner</tspan><tspan fill="#8eaeff">Kits</tspan></text>
</svg>
 <text x="420" y="138" font-family="Arial, Helvetica, sans-serif" font-size="48" font-weight="700" letter-spacing="-1.4" fill="#ffffff">Predict. Experiment. <tspan fill="#ffd36c">Explain.</tspan></text>
 <text x="423" y="179" font-family="Arial, Helvetica, sans-serif" font-size="19" fill="#d3dff8" letter-spacing=".3">Free interactive science simulations</text>
 <path d="M423 207 H469" stroke="#f4b942" stroke-width="3" stroke-linecap="round"/>
 </svg>